<?xml version="1.0" encoding="UTF-8"?>
<svg version="1.1" xmlns="http://www.w3.org/2000/svg" width="1288" height="1042">
<path d="M0 0 C1.16660156 0.53496094 2.33320312 1.06992187 3.53515625 1.62109375 C4.69917969 2.22050781 5.86320313 2.81992187 7.0625 3.4375 C8.4528673 4.14764019 9.84351081 4.85723975 11.234375 5.56640625 C11.98912109 5.95328613 12.74386719 6.34016602 13.52148438 6.73876953 C16.24061625 8.12244125 18.9704771 9.48306498 21.703125 10.83984375 C22.71238037 11.34136963 23.72163574 11.84289551 24.76147461 12.35961914 C26.70970345 13.32726389 28.6583883 14.2939914 30.60766602 15.25952148 C37.6133084 18.75123785 44.54071567 22.38026269 51.46138 26.0362854 C59.74160219 30.40430439 68.07203599 34.67167323 76.41015625 38.92785645 C80.89988324 41.21991117 85.38751004 43.51606929 89.875 45.8125 C90.75720215 46.26393372 91.6394043 46.71536743 92.54833984 47.18048096 C100.76961746 51.3897365 108.97111854 55.63629993 117.16650391 59.89575195 C125.89231531 64.42988314 134.63176961 68.93708592 143.375 73.4375 C153.75552738 78.78103483 164.13164072 84.13289135 174.5 89.5 C184.82707004 94.84553487 195.16130699 100.17698077 205.5 105.5 C215.92142221 110.86582966 226.33933386 116.23832853 236.75 121.625 C237.3423645 121.93149475 237.934729 122.2379895 238.54504395 122.55377197 C243.87799149 125.31325171 249.2104581 128.0736605 254.54296875 130.83398438 C258.11184826 132.68124269 261.6808475 134.5282692 265.25 136.375 C265.84137756 136.68100128 266.43275513 136.98700256 267.04205322 137.30227661 C276.89689846 142.40095405 286.75986512 147.4837655 296.625 152.5625 C308.8782388 158.87075398 321.1189028 165.20268993 333.3515625 171.55078125 C340.27356386 175.14281065 347.19847791 178.72919768 354.125 182.3125 C354.71859314 182.61960907 355.31218628 182.92671814 355.92376709 183.24313354 C363.77418857 187.30416748 371.62911414 191.35637381 379.4884491 195.40013123 C383.01920976 197.21683568 386.54924892 199.034907 390.07739258 200.85668945 C391.44871367 201.56464843 392.82005135 202.27257527 394.19140625 202.98046875 C394.85779617 203.32449234 395.5241861 203.66851593 396.21076965 204.02296448 C400.38953194 206.17753669 404.57980297 208.30793966 408.77734375 210.42578125 C431.01254361 221.70450581 448.89178005 234.82303382 458 259 C461.29299711 269.56503239 462.15320384 280.00865903 462.13371277 291.02020264 C462.1371111 292.45675528 462.1371111 292.45675528 462.14057809 293.92232919 C462.14686637 297.10545857 462.14609201 300.28854481 462.14526367 303.47167969 C462.14825887 305.76614944 462.15166222 308.06061869 462.15544128 310.35508728 C462.16426051 316.57792521 462.16661886 322.80074937 462.16725707 329.02359295 C462.1679701 332.92926614 462.17010946 336.83493588 462.17275429 340.74060822 C462.18153196 353.71470313 462.18617481 366.68878837 462.18542381 379.66288611 C462.18536388 380.71026774 462.18536388 380.71026774 462.18530273 381.77880859 C462.18524141 382.82750977 462.18524141 382.82750977 462.18517885 383.89739683 C462.18477502 395.15195955 462.19427732 406.40648839 462.2084411 417.66104135 C462.22295064 429.28485135 462.22970302 440.90864502 462.22884732 452.53246427 C462.22859539 459.03035322 462.23127296 465.52820403 462.24202538 472.0260849 C462.29821328 508.52684236 461.92489976 544.88201577 457.75 581.1875 C457.64395447 582.13561554 457.53790894 583.08373108 457.4286499 584.06057739 C450.91774899 641.9927299 437.53337537 699.3423035 412 752 C411.51772949 753.01078613 411.03545898 754.02157227 410.53857422 755.06298828 C396.75463116 783.90876553 379.05860756 811.08344296 357.2578125 834.55859375 C355.32656147 836.64688422 353.4668194 838.77091534 351.625 840.9375 C348.56983796 844.44768617 345.34323893 847.76488168 342.0625 851.0625 C341.58441895 851.54517334 341.10633789 852.02784668 340.61376953 852.52514648 C336.57616802 856.54579468 332.32272995 860.28986736 328 864 C327.37037354 864.54164795 326.74074707 865.0832959 326.09204102 865.64135742 C256.90740208 924.70359604 166.63254981 953.28320213 47 968 C45.93362305 968.11561279 44.86724609 968.23122559 43.76855469 968.3503418 C38.47027717 968.90782378 33.329261 969.08595582 28 969 C31.30574345 965.51394327 34.56646514 962.80983062 38.625 960.25 C63.67132016 943.86884929 83.49692131 921.0207875 98 895 C98.39396973 894.30100586 98.78793945 893.60201172 99.19384766 892.88183594 C133.8048773 831.0127342 143.30318829 757.68716826 155.52006149 688.85968781 C160.09395973 663.10227377 164.78767586 637.42310725 171 612 C171.16332825 611.32386658 171.32665649 610.64773315 171.49493408 609.95111084 C182.12123499 565.98152386 197.86590235 521.93745009 230 489 C230.639375 488.29875 231.27875 487.5975 231.9375 486.875 C252.46795628 464.92865018 284.58100548 451.58161811 314 448 C314.82145508 447.89993652 315.64291016 447.79987305 316.48925781 447.69677734 C329.67961075 446.16777513 342.7312522 445.7409572 356 446 C358.30323567 450.60647133 356.11804084 457.28942268 355.5 462.3125 C355.36612885 463.4075032 355.36612885 463.4075032 355.22955322 464.52462769 C346.64521667 533.73946869 325.19422319 601.6800646 298.80212402 666.04217529 C297.99691257 668.0075358 297.19584194 669.97454345 296.39550781 671.94189453 C280.1521971 711.80159609 262.43329482 752.80222751 239 789 C276.67990884 751.51634069 303.4194093 699.95926283 327.0982666 652.79376221 C327.98627434 651.02730361 328.8793293 649.26338519 329.77246094 647.49951172 C351.68699417 604.04322454 378.2918286 549.21754901 378.12025452 499.76820374 C378.12110894 498.85975769 378.12196337 497.95131164 378.12284368 497.01533693 C378.12448578 493.98294195 378.11899795 490.95060275 378.11352539 487.91821289 C378.11324322 485.73986818 378.11340184 483.56152337 378.1139679 481.38317871 C378.1142547 475.47674846 378.10837682 469.57033854 378.10139394 463.66391301 C378.09514097 457.48862515 378.09455506 451.31333681 378.09336853 445.13804626 C378.09026095 433.44746409 378.08205527 421.75689127 378.07201904 410.06631321 C378.06084012 396.75564334 378.05534296 383.44497396 378.05032361 370.13430035 C378.0398722 342.75619505 378.02228383 315.37809805 378 288 C377.47842819 287.73406036 376.95685638 287.46812073 376.41947937 287.19412231 C370.88477647 284.37177271 365.35096786 281.54767514 359.81762695 278.72265625 C357.76511159 277.67502654 355.71238455 276.62781141 353.65942383 275.58105469 C341.00510067 269.12849549 328.38969789 262.61077478 315.83450997 255.96731573 C312.04654713 253.96996706 308.23675277 252.01560891 304.421875 250.0703125 C303.64572845 249.67321579 302.86958191 249.27611908 302.06991577 248.86698914 C300.45228357 248.0393716 298.83443656 247.21217377 297.21636963 246.38540649 C284.95319537 240.11846893 272.70275063 233.82971431 260.50341797 227.43920898 C252.31253194 223.15241108 244.09518061 218.91775397 235.875 214.6875 C233.03383428 213.22529906 230.19267647 211.76308275 227.3515625 210.30078125 C226.29840347 209.75873299 226.29840347 209.75873299 225.22396851 209.20573425 C218.2281401 205.60419464 211.23820162 201.99131139 204.25 198.375 C203.65950867 198.06944183 203.06901733 197.76388367 202.46063232 197.44906616 C199.4938506 195.91380246 196.52717492 194.37833408 193.56054688 192.84277344 C188.14648295 190.0405099 182.73146167 187.24009717 177.31652832 184.43951416 C174.29431451 182.87641567 171.27216021 181.31320211 168.25 179.75 C167.04166695 179.12499945 165.83333362 178.49999945 164.625 177.875 C152.54166667 171.625 140.45833333 165.375 128.375 159.125 C127.77685486 158.81561493 127.17870972 158.50622986 126.56243896 158.18746948 C125.35430794 157.56257342 124.14617805 156.93767515 122.93804932 156.31277466 C119.9141301 154.74866622 116.8901909 153.18459645 113.86621094 151.62060547 C107.87390877 148.52135755 101.88193293 145.42148207 95.890625 142.3203125 C83.05901591 135.67919513 70.22096286 129.05081402 57.375 122.4375 C46.2377963 116.703807 35.108656 110.9550484 23.99121094 105.18310547 C18.10956412 102.12968098 12.22509446 99.08187524 6.3359375 96.04296875 C5.03612673 95.37191932 3.73632202 94.70085819 2.43652344 94.02978516 C-0.01534456 92.76395183 -2.46790448 91.49949316 -4.92089844 90.23583984 C-6.04786133 89.65398926 -7.17482422 89.07213867 -8.3359375 88.47265625 C-9.43389648 87.90820801 -10.53185547 87.34375977 -11.66308594 86.76220703 C-13.99286052 85.53186514 -16.28119854 84.27994526 -18.56347656 82.96826172 C-19.71041992 82.31744629 -20.85736328 81.66663086 -22.0390625 80.99609375 C-23.06467285 80.39853271 -24.0902832 79.80097168 -25.14697266 79.18530273 C-28.539061 77.77604474 -29.57063754 77.7786701 -33 79 C-35.79288797 80.24773581 -38.50044392 81.63411658 -41.2109375 83.05078125 C-42.00689331 83.46061249 -42.80284912 83.87044373 -43.6229248 84.29269409 C-46.21006533 85.62669432 -48.79253601 86.96947227 -51.375 88.3125 C-53.16656713 89.23854473 -54.9583979 90.1640796 -56.75048828 91.08911133 C-61.83804948 93.71765277 -66.92002575 96.35683108 -72 99 C-72.62116699 99.32303101 -73.24233398 99.64606201 -73.88232422 99.97888184 C-78.08730643 102.16597714 -82.29000046 104.35739609 -86.48876953 106.55639648 C-96.12491126 111.60134493 -105.79860302 116.57319141 -115.47241211 121.54541016 C-122.33995556 125.07647851 -129.20045139 128.61985947 -136.04296875 132.19921875 C-137.30499344 132.85827318 -138.56703724 133.517291 -139.82910156 134.17626953 C-142.18887405 135.40857762 -144.54573078 136.64598491 -146.90136719 137.88623047 C-147.94325195 138.43037598 -148.98513672 138.97452148 -150.05859375 139.53515625 C-150.96923584 140.013479 -151.87987793 140.49180176 -152.81811523 140.98461914 C-155 142 -155 142 -157 142 C-156.39317603 136.34550393 -154.37171388 131.59934785 -152.125 126.4375 C-151.72643799 125.52000977 -151.32787598 124.60251953 -150.91723633 123.65722656 C-138.16068255 94.77093263 -121.03679308 68.14873715 -96.0625 48.3125 C-95.52584717 47.88501465 -94.98919434 47.4575293 -94.4362793 47.01708984 C-85.68098847 40.23604395 -76.04545758 34.78537955 -66.375 29.4375 C-64.17185308 28.21097687 -61.96872874 26.98441319 -59.765625 25.7578125 C-58.64736328 25.13680664 -57.52910156 24.51580078 -56.37695312 23.87597656 C-52.00957631 21.44979644 -47.64600504 19.01689174 -43.28564453 16.578125 C-41.18992602 15.40739765 -39.09196095 14.24068222 -36.99169922 13.078125 C-32.09055563 10.35345308 -27.26045944 7.5725532 -22.5234375 4.5703125 C-21.67120605 4.04074951 -20.81897461 3.51118652 -19.94091797 2.96557617 C-18.36867943 1.98131522 -16.81134091 0.97262868 -15.27392578 -0.06518555 C-9.42530876 -3.69343182 -6.05231067 -2.926688 0 0 Z " fill="#AFF17D" transform="translate(653,30)"/>
<path d="M0 0 C-1.41865193 4.25595579 -4.55473854 5.35211342 -8.25 7.5 C-16.22290459 12.30459743 -23.08585603 17.79733786 -30 24 C-30.89460938 24.7734375 -31.78921875 25.546875 -32.7109375 26.34375 C-48.60963245 40.23676344 -60.73779585 57.65413388 -71 76 C-71.3707666 76.65790527 -71.7415332 77.31581055 -72.12353516 77.99365234 C-105.15004013 137.05297974 -114.91768372 207.46372097 -126.72577477 273.11177444 C-127.12140442 275.31032019 -127.51773412 277.50873869 -127.91426086 279.7071228 C-128.17748724 281.16704826 -128.44068618 282.62697867 -128.70385742 284.08691406 C-128.8335621 284.8063727 -128.96326677 285.52583134 -129.09690189 286.26709175 C-129.84709287 290.43352388 -130.58960706 294.60123077 -131.32610607 298.77010345 C-135.7056043 323.51756965 -140.92163467 348.07924878 -147.375 372.375 C-147.65064285 373.41491089 -147.65064285 373.41491089 -147.93185425 374.47583008 C-161.06257689 423.71621401 -184.35466126 475.14780048 -230 502 C-260.78466513 519.40268182 -293.123705 523.50115158 -328 523 C-342.5889371 479.2331887 -285.4865335 336.9913781 -246 246 C-245.4755127 244.86836426 -244.95102539 243.73672852 -244.41064453 242.57080078 C-234.29921632 220.85080806 -223.68362494 198.72815303 -210 179 C-226.480213 195.15707157 -239.49055706 214.71740138 -252 234 C-252.81138428 235.24209229 -252.81138428 235.24209229 -253.63916016 236.50927734 C-290.28004987 292.70183882 -321.77583362 354.31870235 -340.875 418.8125 C-341.22038818 419.9660498 -341.56577637 421.11959961 -341.92163086 422.30810547 C-347.61134871 442.19800315 -350.75962751 461.53292055 -350.56762695 482.21704102 C-350.56621111 484.40789253 -350.56701888 486.5987464 -350.56983948 488.78959656 C-350.57125411 494.64764993 -350.5421862 500.50517475 -350.50696969 506.36310697 C-350.47537501 512.51824223 -350.47274967 518.67339417 -350.46684265 524.82859802 C-350.45140038 536.44431758 -350.41050409 548.05979738 -350.3600952 559.67541212 C-350.30389974 572.91633471 -350.2766398 586.15726971 -350.25161803 599.39828217 C-350.19957812 626.59898688 -350.11182594 653.79947991 -350 681 C-346.98308013 682.58927145 -343.96592506 684.17809589 -340.94873047 685.7668457 C-340.10267746 686.21254158 -339.25662445 686.65823746 -338.38493347 687.11743927 C-331.31483674 690.83986259 -324.22578102 694.52390863 -317.125 698.1875 C-315.88993417 698.82544381 -314.65490932 699.46346695 -313.41992188 700.1015625 C-310.87548075 701.41615368 -308.33087076 702.73041708 -305.78613281 704.04443359 C-300.29050649 706.88252977 -294.79707314 709.7248646 -289.30352783 712.56698608 C-287.4919599 713.50415936 -285.68031921 714.44119182 -283.86865234 715.37817383 C-277.87551735 718.47779189 -271.88274089 721.57809972 -265.890625 724.6796875 C-253.05901591 731.32080487 -240.22096286 737.94918598 -227.375 744.5625 C-215.12693749 750.8680891 -202.89135832 757.19717995 -190.6640625 763.54296875 C-183.65423264 767.18065347 -176.64005259 770.80990194 -169.625 774.4375 C-169.0236322 774.7484964 -168.4222644 775.0594928 -167.80267334 775.37991333 C-163.53521773 777.5868065 -159.26762755 779.79343935 -155 782 C-150.1249049 784.52064945 -145.24987126 787.04141766 -140.375 789.5625 C-139.77383362 789.87339569 -139.17266724 790.18429138 -138.55328369 790.50460815 C-128.75168865 795.57384849 -118.95468132 800.65190529 -109.15917969 805.73291016 C-97.33015039 811.86782011 -85.4938404 817.98862884 -73.65722656 824.10888672 C-68.20801746 826.92652212 -62.75926872 829.74504757 -57.31048584 832.56350708 C-54.29034281 834.12570796 -51.27016989 835.68785105 -48.25 837.25 C-47.04166652 837.87499972 -45.83333319 838.49999972 -44.625 839.125 C-44.026875 839.434375 -43.42875 839.74375 -42.8125 840.0625 C-37.37499995 842.87500003 -37.37499995 842.87500003 -35.56253052 843.81248474 C-34.35409603 844.43753671 -33.14566097 845.06258757 -31.93722534 845.68763733 C-28.91793495 847.24933312 -25.89865448 848.8110481 -22.87939453 850.37280273 C-17.42356766 853.19488203 -11.96767082 856.0168256 -6.51139832 858.83804321 C-4.07226854 860.09923116 -1.63319158 861.36052121 0.80587769 862.62182617 C2.01461629 863.24686868 3.22337672 863.87186896 4.43215942 864.49682617 C11.06860009 867.92803663 17.70282895 871.36341673 24.33203125 874.80859375 C25.53759254 875.43482429 26.74315889 876.06104512 27.94873047 876.68725586 C30.18131222 877.84729221 32.41345133 879.00818108 34.64501953 880.17016602 C36.70500919 881.24038108 38.77637211 882.28899484 40.85864258 883.31518555 C44 885 44 885 47.1940918 887.28833008 C50.69668959 889.69325771 53.76716911 891.18166149 58 892 C65.23708945 890.62537284 71.65291891 886.33434591 77.9375 882.6875 C79.7802202 881.67262483 81.62595537 880.66320544 83.47460938 879.65917969 C87.08492194 877.68931958 90.67806034 875.69319903 94.25732422 873.66748047 C99.76850464 870.55286698 105.36482424 867.6340242 111 864.75 C112.74821523 863.83620131 114.4955967 862.92080597 116.2421875 862.00390625 C123.51926763 858.19849656 130.82311262 854.44501121 138.125 850.6875 C140.92841087 849.24484112 143.73181409 847.8021674 146.53515625 846.359375 C147.23126511 846.0011113 147.92737396 845.6428476 148.64457703 845.27372742 C156.28901607 841.33824162 163.92631991 837.38898149 171.5625 833.4375 C172.19971985 833.10777191 172.8369397 832.77804382 173.49346924 832.43832397 C176.99584662 830.62593645 180.49802245 828.81315997 184 827 C185.12248047 830.30526184 184.91850958 831.99041869 183.55078125 835.17578125 C183.20354004 835.99216064 182.85629883 836.80854004 182.49853516 837.6496582 C182.10714355 838.528396 181.71575195 839.40713379 181.3125 840.3125 C180.90821777 841.23313232 180.50393555 842.15376465 180.08740234 843.10229492 C172.54887024 859.97797157 164.13340007 876.20798261 153 891 C152.29875 891.94359375 151.5975 892.8871875 150.875 893.859375 C130.80313289 919.55744728 104.6375727 934.43157583 76.5625 949.83984375 C69.3960322 953.77336302 62.2557979 957.75217327 55.125 961.75 C54.10422363 962.32194092 53.08344727 962.89388184 52.03173828 963.4831543 C50.59677002 964.28813354 50.59677002 964.28813354 49.1328125 965.109375 C48.23594727 965.60244141 47.33908203 966.09550781 46.41503906 966.60351562 C44.03763225 967.92125141 44.03763225 967.92125141 42.10839844 969.38085938 C39.69499543 971.10211132 37.83314507 972.13042096 34.84492493 971.66264343 C28.40075761 969.64410333 22.53175212 966.99962564 16.55078125 963.87890625 C15.57626511 963.3789061 14.60174896 962.87890594 13.59770203 962.36375427 C10.49851833 960.77118495 7.40549962 959.16704051 4.3125 957.5625 C2.28880168 956.52072599 0.26471559 955.47970491 -1.75976562 954.43945312 C-12.76489108 948.77700307 -23.7379297 943.0533145 -34.70716858 937.32174683 C-43.03094328 932.97582534 -51.38070498 928.6819618 -59.7409668 924.40673828 C-63.94561215 922.25640558 -68.1486382 920.10291294 -72.3515625 917.94921875 C-73.6009964 917.30900284 -73.6009964 917.30900284 -74.87567139 916.65585327 C-82.09338619 912.95567763 -89.2988596 909.23232348 -96.5 905.5 C-107.85848004 899.6134175 -119.23875816 893.77017556 -130.625 887.9375 C-142.7417393 881.73039454 -154.84646463 875.50193715 -166.92675781 869.22412109 C-176.06336882 864.478567 -185.21759804 859.76775886 -194.375 855.0625 C-205.21510775 849.49221103 -216.05110252 843.91423113 -226.875 838.3125 C-227.46363831 838.00786835 -228.05227661 837.70323669 -228.65875244 837.38937378 C-232.77277277 835.26010612 -236.88638074 833.13004235 -241 831 C-245.74972755 828.54113994 -250.49971096 826.08277508 -255.25 823.625 C-255.84155884 823.31890808 -256.43311768 823.01281616 -257.04260254 822.69744873 C-267.60058428 817.2349779 -278.16808304 811.7910796 -288.73718262 806.35015869 C-299.08728011 801.02149959 -309.42650554 795.67242943 -319.75830078 790.30834961 C-327.95806677 786.05336538 -336.16801406 781.81846447 -344.38174438 777.59051514 C-348.56203445 775.4384285 -352.74144299 773.28463009 -356.92094421 771.13101196 C-360.24678814 769.41748455 -363.573166 767.70501251 -366.90087891 765.99511719 C-370.53988163 764.1252176 -374.17625543 762.25025744 -377.8125 760.375 C-379.40191406 759.55999023 -379.40191406 759.55999023 -381.0234375 758.72851562 C-403.67551747 747.02638746 -421.56107376 734.34451784 -430.28515625 709.3125 C-433.2351172 699.5004435 -434.15156517 690.23204923 -434.13371277 680.03085327 C-434.13597833 679.0665444 -434.13824388 678.10223552 -434.14057809 677.10870516 C-434.14687643 673.89716474 -434.14609134 670.68566698 -434.14526367 667.47412109 C-434.14825828 665.16171718 -434.1516615 662.84931377 -434.15544128 660.53691101 C-434.16426753 654.26022945 -434.16661918 647.98356154 -434.16725707 641.70687437 C-434.16796982 637.76752934 -434.17010868 633.82818772 -434.17275429 629.88884354 C-434.18153466 616.80323151 -434.18617452 603.71762799 -434.18542381 590.63201301 C-434.18538386 589.92748192 -434.1853439 589.22295083 -434.18530273 588.49707031 C-434.18526185 587.79165177 -434.18522097 587.08623323 -434.18517885 586.35943837 C-434.18477518 575.00848986 -434.19427251 563.65757497 -434.2084411 552.30663614 C-434.222954 540.58454191 -434.22970281 528.86246388 -434.22884732 517.14036047 C-434.22851979 510.58709508 -434.23127022 504.03386034 -434.24202538 497.48060226 C-434.31393657 450.28439942 -434.31393657 450.28439942 -433.09887695 427.20166016 C-433.05919245 426.4454855 -433.01950795 425.68931085 -432.97862089 424.91022182 C-428.36439428 340.03657109 -409.27583913 255.25782419 -365 182 C-364.52498047 181.20625977 -364.04996094 180.41251953 -363.56054688 179.59472656 C-357.94453079 170.22780725 -351.82870757 161.51898172 -345 153 C-344.32195312 152.12859375 -343.64390625 151.2571875 -342.9453125 150.359375 C-338.64987454 144.87363496 -334.0809624 139.70033194 -329.359375 134.578125 C-327.42129773 132.46035844 -325.54458501 130.31305066 -323.6875 128.125 C-316.16382487 119.47812218 -307.83374147 111.29938166 -299 104 C-298.47132324 103.5575293 -297.94264648 103.11505859 -297.39794922 102.65917969 C-280.8777636 88.85592441 -263.70344919 76.67213332 -245 66 C-244.13922852 65.5064502 -243.27845703 65.01290039 -242.39160156 64.50439453 C-172.39203176 24.62514388 -81.14084269 -0.80417089 0 0 Z " fill="#AFF17E" transform="translate(567,46)"/>
<path d="M0 0 C0.33 0 0.66 0 1 0 C1 9.57 1 19.14 1 29 C0.34 29 -0.32 29 -1 29 C-1 118.76 -1 208.52 -1 301 C-1.33 301 -1.66 301 -2 301 C-2.80708975 294.635566 -3.14493263 288.44209565 -3.13371277 282.03085327 C-3.13597833 281.0665444 -3.13824388 280.10223552 -3.14057809 279.10870516 C-3.14687643 275.89716474 -3.14609134 272.68566698 -3.14526367 269.47412109 C-3.14825828 267.16171718 -3.1516615 264.84931377 -3.15544128 262.53691101 C-3.16426753 256.26022945 -3.16661918 249.98356154 -3.16725707 243.70687437 C-3.16796982 239.76752934 -3.17010868 235.82818772 -3.17275429 231.88884354 C-3.18153466 218.80323151 -3.18617452 205.71762799 -3.18542381 192.63201301 C-3.18538386 191.92748192 -3.1853439 191.22295083 -3.18530273 190.49707031 C-3.18526185 189.79165177 -3.18522097 189.08623323 -3.18517885 188.35943837 C-3.18477518 177.00848986 -3.19427251 165.65757497 -3.2084411 154.30663614 C-3.222954 142.58454191 -3.22970281 130.86246388 -3.22884732 119.14036047 C-3.22851979 112.58709508 -3.23127022 106.03386034 -3.24202538 99.48060226 C-3.29278618 66.23788296 -2.95931155 33.13264072 0 0 Z " fill="#456032" transform="translate(136,444)"/>
<path d="M0 0 C0.33 0 0.66 0 1 0 C1 9.57 1 19.14 1 29 C0.34 29 -0.32 29 -1 29 C-1 60.68 -1 92.36 -1 125 C-1.33 125 -1.66 125 -2 125 C-2.04682087 112.68871279 -2.08211727 100.37744756 -2.10362434 88.06608868 C-2.1139587 82.34635407 -2.12792276 76.6266814 -2.15087891 70.90698242 C-2.34375709 21.60561218 -2.34375709 21.60561218 0 0 Z " fill="#7CAB59" transform="translate(136,444)"/>
<path d="M0 0 C0.66 0.33 1.32 0.66 2 1 C-5.53810427 9.14567709 -13.12929671 17.23688674 -20.9375 25.125 C-21.82127319 26.02810913 -21.82127319 26.02810913 -22.72290039 26.94946289 C-26.84818377 31.08399708 -31.2464899 34.61048686 -36 38 C-34.64925028 35.01408905 -33.12386104 32.83727758 -30.875 30.4609375 C-30.25568604 29.80279053 -29.63637207 29.14464355 -28.99829102 28.46655273 C-28.33885498 27.77634033 -27.67941895 27.08612793 -27 26.375 C-26.32445068 25.662229 -25.64890137 24.94945801 -24.95288086 24.21508789 C-17.26249819 16.12732147 -9.49450955 8.25249249 -1 1 C-0.67 0.67 -0.34 0.34 0 0 Z " fill="#709B51" transform="translate(269,149)"/>
<path d="M0 0 C1.22972123 2.45944247 0.9675924 3.63889056 0.66015625 6.3515625 C0.56669922 7.20234375 0.47324219 8.053125 0.37695312 8.9296875 C0.27318359 9.81914062 0.16941406 10.70859375 0.0625 11.625 C-0.03740234 12.5221875 -0.13730469 13.419375 -0.24023438 14.34375 C-0.48814703 16.56315849 -0.74161994 18.78178977 -1 21 C-1.33 21 -1.66 21 -2 21 C-2.02757191 19.33343119 -2.04664803 17.66672149 -2.0625 16 C-2.07410156 15.071875 -2.08570313 14.14375 -2.09765625 13.1875 C-1.98162128 9.40011853 -1.51370859 5.75371317 -1 2 C-5.02106649 2.13980455 -9.0417861 2.28792319 -13.0625 2.4375 C-14.19623047 2.47681641 -15.32996094 2.51613281 -16.49804688 2.55664062 C-22.07889564 2.76815967 -27.47082457 3.19478028 -33 4 C-35.81432753 4.11151557 -38.62158748 4.0959921 -41.4375 4.0625 C-42.16904297 4.05798828 -42.90058594 4.05347656 -43.65429688 4.04882812 C-45.43623419 4.03718148 -47.21812863 4.01925191 -49 4 C-49 3.67 -49 3.34 -49 3 C-32.61477639 0.63630528 -16.54698249 -0.14982177 0 0 Z " fill="#597A40" transform="translate(1009,476)"/>
<path d="M0 0 C-0.33 0.99 -0.66 1.98 -1 3 C-1.99 3.33 -2.98 3.66 -4 4 C-4 3.34 -4 2.68 -4 2 C-9.06337113 2.42779365 -14.12576356 2.86584035 -19.1875 3.3125 C-20.31321411 3.41179306 -20.31321411 3.41179306 -21.46166992 3.51309204 C-31.49608105 4.40694809 -41.46898475 5.44717811 -51.41479492 7.08520508 C-56.67434164 7.92761395 -61.67028777 8.11103567 -67 8 C-67 7.67 -67 7.34 -67 7 C-31.62761614 1.88669488 -31.62761614 1.88669488 -18.3125 0.6875 C-17.06315674 0.57365967 -17.06315674 0.57365967 -15.78857422 0.45751953 C-10.511862 0.02024704 -5.29435738 -0.05806374 0 0 Z " fill="#40582E" transform="translate(567,46)"/>
<path d="M0 0 C0.66 0.33 1.32 0.66 2 1 C-3.695072 7.32287521 -9.45703242 13.57000946 -15.4375 19.625 C-15.93282227 20.13321289 -16.42814453 20.64142578 -16.93847656 21.16503906 C-19.44336586 23.67675833 -21.68754999 25.66875532 -25 27 C-20.52642851 16.3689846 -8.49761024 7.53365794 0 0 Z " fill="#7CAB59" transform="translate(556,79)"/>
<path d="M0 0 C0.33 0 0.66 0 1 0 C1 9.57 1 19.14 1 29 C0.34 29 -0.32 29 -1 29 C-1 33.62 -1 38.24 -1 43 C-1.33 43 -1.66 43 -2 43 C-2.39692087 28.60059306 -1.18359518 14.34164803 0 0 Z " fill="#54733C" transform="translate(136,444)"/>
<path d="M0 0 C0.66 0.33 1.32 0.66 2 1 C-1.03764089 2.6326083 -4.08078323 4.25469108 -7.125 5.875 C-7.9809375 6.33519531 -8.836875 6.79539063 -9.71875 7.26953125 C-14.07134722 9.57975593 -18.23626578 11.64116434 -23 13 C-22.44894091 9.0507432 -21.61064629 5.65079826 -20 2 C-19.06576355 5.01031744 -18.95550089 5.86650268 -20 9 C-13.79226058 6.63577584 -7.88015593 4.01128666 -2.03125 0.85546875 C-1.3609375 0.57316406 -0.690625 0.29085937 0 0 Z " fill="#5D8143" transform="translate(519,159)"/>
<path d="M0 0 C0.66 0.33 1.32 0.66 2 1 C-9.33712984 13.85421412 -9.33712984 13.85421412 -16 18 C-14.6415798 14.95667235 -13.11536976 12.87690849 -10.7421875 10.546875 C-10.11699219 9.928125 -9.49179687 9.309375 -8.84765625 8.671875 C-8.19667969 8.03765625 -7.54570313 7.4034375 -6.875 6.75 C-6.21628906 6.1003125 -5.55757812 5.450625 -4.87890625 4.78125 C-3.25703357 3.18288273 -1.6306719 1.58938103 0 0 Z " fill="#648A48" transform="translate(891,511)"/>
<path d="M0 0 C0 0.99 0 1.98 0 3 C-1.45060466 4.21982664 -2.90713544 5.43405761 -4.40625 6.59375 C-6.05626151 8.04964251 -7.09102575 9.45111711 -8.25 11.3125 C-9.11625 12.6428125 -9.11625 12.6428125 -10 14 C-10.66 14 -11.32 14 -12 14 C-10.54923295 9.88949336 -8.65754275 6.46285873 -6 3 C-5.01 3 -4.02 3 -3 3 C-1.31201173 1.56249809 -1.31201173 1.56249809 0 0 Z " fill="#56773E" transform="translate(896,816)"/>
<path d="M0 0 C1.04128715 3.15181546 0.9926693 4.77535249 -0.3125 7.8125 C-1.4216856 10.50479594 -2.34255598 13.11578393 -3.0625 15.9375 C-3.371875 16.948125 -3.68125 17.95875 -4 19 C-4.66 19.33 -5.32 19.66 -6 20 C-4.63125844 13.04223041 -2.5466871 6.61396893 0 0 Z " fill="#4F6D39" transform="translate(838,595)"/>
<path d="M0 0 C1.0326802 2.78823655 1.04509293 3.8677274 0.0625 6.75 C-0.288125 7.4925 -0.63875 8.235 -1 9 C-1.33 9 -1.66 9 -2 9 C-2 7.35 -2 5.7 -2 4 C-3.98 4.33 -5.96 4.66 -8 5 C-5.44008376 2.98863724 -2.95409701 1.37154504 0 0 Z " fill="#638847" transform="translate(751,873)"/>
<path d="M0 0 C0.33 0 0.66 0 1 0 C1.08126087 2.08268593 1.13930839 4.16628658 1.1875 6.25 C1.23970703 7.99023438 1.23970703 7.99023438 1.29296875 9.765625 C0.97982934 13.22268407 0.34290892 14.51565563 -2 17 C-1.03644647 5.47835991 -1.03644647 5.47835991 0 0 Z " fill="#5A7C41" transform="translate(808,721)"/>
<path d="M0 0 C0.79921875 0.01804688 1.5984375 0.03609375 2.421875 0.0546875 C3.02515625 0.07789063 3.6284375 0.10109375 4.25 0.125 C3.92 1.115 3.59 2.105 3.25 3.125 C2.26 3.455 1.27 3.785 0.25 4.125 C0.25 3.465 0.25 2.805 0.25 2.125 C-2.72 2.125 -5.69 2.125 -8.75 2.125 C-5.00631258 0.25315629 -3.9099209 -0.11499767 0 0 Z " fill="#56773E" transform="translate(562.75,45.875)"/>
<path d="M0 0 C0 0.66 0 1.32 0 2 C-6.45 6.09326923 -6.45 6.09326923 -9.234375 5.62109375 C-9.81703125 5.41613281 -10.3996875 5.21117187 -11 5 C-9.54462432 4.16151196 -8.08559627 3.32936066 -6.625 2.5 C-5.81289063 2.0359375 -5.00078125 1.571875 -4.1640625 1.09375 C-2 0 -2 0 0 0 Z " fill="#5B7D41" transform="translate(739,880)"/>
<path d="M0 0 C0.33 0 0.66 0 1 0 C1.36923077 7.50769231 1.36923077 7.50769231 -0.5 10 C-0.995 10.33 -1.49 10.66 -2 11 C-1.125 3.375 -1.125 3.375 0 0 Z " fill="#608445" transform="translate(259,457)"/>
</svg>
